<?xml version="1.0" encoding="UTF-8"?>
<svg width="512px" height="512px" viewBox="0 0 512 512" version="1.1" xmlns="http://www.w3.org/2000/svg" xmlns:xlink="http://www.w3.org/1999/xlink">
    <!-- Generator: Sketch 48.2 (47327) - http://www.bohemiancoding.com/sketch -->
    <title>icon</title>
    <desc>Created with Sketch.</desc>
    <defs></defs>
    <g id="Page-1" stroke="none" stroke-width="1" fill="none" fill-rule="evenodd">
        <g id="icon">
            <g>
                <circle id="Oval-Copy" fill="#FF8147" cx="256" cy="256" r="256"></circle>
                <g id="Group" transform="translate(134.000000, 105.000000)" fill="#FFFFFF" fill-rule="nonzero">
                    <path d="M243.106667,46.3810811 C243.106667,21.2595883 222.750547,0.894594595 197.64,0.894594595 L46.36,0.894594595 C21.2494534,0.894594595 0.893333333,21.2595883 0.893333333,46.3810811 L0.893333333,255.618919 C0.893333333,280.740412 21.2494534,301.105405 46.36,301.105405 L197.64,301.105405 C222.750547,301.105405 243.106667,280.740412 243.106667,255.618919 L243.106667,46.3810811 Z M226.573333,256.032432 C226.573333,272.018837 213.619439,284.978378 197.64,284.978378 L46.36,284.978378 C30.3805612,284.978378 17.4266667,272.018837 17.4266667,256.032432 L17.4266667,46.3810811 C17.4266667,30.3946766 30.3805612,17.4351351 46.36,17.4351351 L197.64,17.4351351 C213.619439,17.4351351 226.573333,30.3946766 226.573333,46.3810811 L226.573333,256.032432 Z" id="Shape"></path>
                    <path d="M184,142.72973 L60,142.72973 C55.4344461,142.72973 51.7333333,146.432456 51.7333333,151 C51.7333333,155.567544 55.4344461,159.27027 60,159.27027 L184,159.27027 C188.565554,159.27027 192.266667,155.567544 192.266667,151 C192.266667,146.432456 188.565554,142.72973 184,142.72973 Z" id="Shape"></path>
                    <path d="M60,101.378378 L101.333333,101.378378 C105.898887,101.378378 109.6,97.6756523 109.6,93.1081081 C109.6,88.540564 105.898887,84.8378378 101.333333,84.8378378 L60,84.8378378 C55.4344461,84.8378378 51.7333333,88.540564 51.7333333,93.1081081 C51.7333333,97.6756523 55.4344461,101.378378 60,101.378378 Z" id="Shape"></path>
                    <path d="M184,200.621622 L60,200.621622 C55.4344461,200.621622 51.7333333,204.324348 51.7333333,208.891892 C51.7333333,213.459436 55.4344461,217.162162 60,217.162162 L184,217.162162 C188.565554,217.162162 192.266667,213.459436 192.266667,208.891892 C192.266667,204.324348 188.565554,200.621622 184,200.621622 Z" id="Shape"></path>
                </g>
            </g>
        </g>
    </g>
</svg>